<svg xmlns="http://www.w3.org/2000/svg" xmlns:xlink="http://www.w3.org/1999/xlink" width="500" zoomAndPan="magnify" viewBox="0 0 375 374.999991" height="500" preserveAspectRatio="xMidYMid meet" version="1.0"><defs><g/><clipPath id="30135bc713"><path d="M 26.445312 0 L 353 0 L 353 375 L 26.445312 375 Z M 26.445312 0 " clip-rule="nonzero"/></clipPath></defs><g clip-path="url(#30135bc713)"><path fill="#000000" d="M 248.015625 282.769531 C 231.394531 288.652344 214.777344 294.535156 198.15625 300.414062 C 181.828125 306.191406 158.855469 292.476562 143.199219 286.945312 C 163.691406 273.253906 182.730469 257.859375 197.796875 238.308594 C 212.804688 218.824219 228.988281 200.164062 246.867188 183.25 C 275.972656 155.71875 310.675781 131.746094 350.535156 123.617188 C 350.535156 113.238281 350.535156 102.859375 350.535156 92.484375 C 321.03125 75.453125 291.539062 58.417969 262.039062 41.390625 C 249.953125 34.40625 237.867188 27.433594 225.78125 20.453125 C 219.9375 17.074219 214.09375 13.699219 208.238281 10.332031 C 204.074219 7.929688 195.519531 0.511719 190.871094 0.304688 C 184.742188 0.0195312 176.0625 7.523438 171.003906 10.445312 C 165.988281 13.335938 160.980469 16.242188 155.960938 19.132812 C 143.875 26.117188 131.789062 33.089844 119.703125 40.070312 C 90.210938 57.089844 60.707031 74.117188 31.203125 91.144531 C 31.203125 103.640625 31.203125 116.132812 31.203125 128.636719 C 64.996094 116.683594 98.785156 104.730469 132.578125 92.765625 C 147.300781 87.558594 162.011719 82.351562 176.734375 77.144531 C 187.730469 73.253906 191.582031 73.207031 202.28125 76.992188 C 212.832031 80.730469 223.390625 84.457031 233.9375 88.195312 C 211.789062 103.175781 193.574219 119.878906 177.105469 140.863281 C 162.722656 159.179688 147.269531 176.722656 130.269531 192.667969 C 101.269531 219.867188 66.351562 243.914062 26.613281 251.445312 C 26.804688 261.796875 26.992188 272.136719 27.191406 282.484375 C 56.808594 299.589844 86.433594 316.683594 116.050781 333.789062 C 128.195312 340.796875 140.347656 347.820312 152.488281 354.828125 C 159.195312 358.699219 165.894531 362.570312 172.597656 366.441406 C 177.644531 369.351562 184.164062 375.023438 190.007812 374.890625 C 195.804688 374.757812 202.472656 368.964844 207.414062 366.109375 C 214.121094 362.238281 220.820312 358.367188 227.527344 354.496094 C 239.667969 347.484375 251.820312 340.464844 263.960938 333.457031 C 293.578125 316.351562 323.207031 299.257812 352.820312 282.152344 C 352.820312 270 352.820312 257.847656 352.820312 245.699219 C 317.894531 258.046875 282.953125 270.410156 248.015625 282.769531 Z M 248.015625 282.769531 " fill-opacity="1" fill-rule="nonzero"/></g><g fill="#000000" fill-opacity="1"><g transform="translate(87.724968, 123.249088)"><g><path d="M 278.71875 107.453125 C 278.71875 97.753906 274.539062 90.347656 266.1875 85.234375 C 262.425781 83.078125 258.117188 81.863281 253.265625 81.59375 L 0 81.59375 C -22.625 81.59375 -41.742188 74.523438 -57.359375 60.390625 C -72.972656 46.253906 -80.78125 28.816406 -80.78125 8.078125 L -77.15625 8.078125 C -72.570312 21.273438 -62.671875 32.453125 -47.453125 41.609375 C -32.242188 50.765625 -16.019531 55.34375 1.21875 55.34375 L 253.265625 55.34375 C 260.265625 55.070312 266.253906 52.441406 271.234375 47.453125 C 276.222656 42.472656 278.71875 36.484375 278.71875 29.484375 L 278.71875 24.234375 L 282.75 24.234375 L 282.75 112.703125 L 278.71875 112.703125 Z M 278.71875 107.453125 "/></g></g></g></svg>